<svg xmlns="http://www.w3.org/2000/svg" width="1024" height="1024" viewBox="0 0 1024 1024">
<rect x="0" y="0" width="1024" height="1024" rx="225" ry="225" fill="#1A1A1E"/>
<g transform="translate(276.48,345.53) scale(4.0260)"><g fill="#FFFFFF">
<path d="M0 22 q0 -8 9 -9 l9 -1 v28 l-9 -1 q-9 -1 -9 -9 z"/>
<rect x="20" y="9" width="8" height="24" rx="2"/>
<rect x="31" y="9" width="8" height="24" rx="2"/>
<rect x="42" y="4" width="48" height="34" rx="8"/>
<path d="M90 12 h22 a5 5 0 0 1 5 5 v8 a5 5 0 0 1 -5 5 h-22 z"/>
</g></g>
<text x="512.0" y="757.8" text-anchor="middle"
      font-family="Helvetica, Arial, sans-serif" font-weight="700"
      font-size="138.2" fill="#FFFFFF" letter-spacing="4.1">LL Input</text>
</svg>